<svg xmlns="http://www.w3.org/2000/svg" xmlns:xlink="http://www.w3.org/1999/xlink" contentStyleType="text/css" height="769px" preserveAspectRatio="none" style="width:1253px;height:769px;background:#FFFFFF;" version="1.1" viewBox="0 0 1253 769" width="1253px" zoomAndPan="magnify"><defs/><g><!--cluster Sistema de Diccionarios--><g id="cluster_Sistema de Diccionarios"><rect fill="#C0C0C0" fill-opacity="0.33333" height="756" rx="2.5" ry="2.5" style="stroke:#181818;stroke-width:1.0;" width="841" x="182" y="7"/><text fill="#000000" font-family="sans-serif" font-size="14" font-weight="bold" lengthAdjust="spacing" textLength="189.2051" x="507.8975" y="21.9951">Sistema de Diccionarios</text></g><!--cluster B?squedas--><g id="cluster_B&#250;squedas"><path d="M216.5,80 L303.7559,80 A3.75,3.75 0 0 1 306.2559,82.5 L313.2559,102.2969 L528.5,102.2969 A2.5,2.5 0 0 1 531,104.7969 L531,364.5 A2.5,2.5 0 0 1 528.5,367 L216.5,367 A2.5,2.5 0 0 1 214,364.5 L214,82.5 A2.5,2.5 0 0 1 216.5,80 " fill="#88AAFF" fill-opacity="0.13333" style="stroke:#000000;stroke-width:1.5;"/><line style="stroke:#000000;stroke-width:1.5;" x1="214" x2="313.2559" y1="102.2969" y2="102.2969"/><text fill="#000000" font-family="sans-serif" font-size="14" font-weight="bold" lengthAdjust="spacing" textLength="86.2559" x="218" y="94.9951">B&#250;squedas</text></g><!--cluster Administraci?n--><g id="cluster_Administraci&#243;n"><path d="M244.5,391 L364.5684,391 A3.75,3.75 0 0 1 367.0684,393.5 L374.0684,413.2969 L500.5,413.2969 A2.5,2.5 0 0 1 503,415.7969 L503,577.5 A2.5,2.5 0 0 1 500.5,580 L244.5,580 A2.5,2.5 0 0 1 242,577.5 L242,393.5 A2.5,2.5 0 0 1 244.5,391 " fill="#C0B055" fill-opacity="0.13333" style="stroke:#000000;stroke-width:1.5;"/><line style="stroke:#000000;stroke-width:1.5;" x1="242" x2="374.0684" y1="413.2969" y2="413.2969"/><text fill="#000000" font-family="sans-serif" font-size="14" font-weight="bold" lengthAdjust="spacing" textLength="119.0684" x="246" y="405.9951">Administraci&#243;n</text></g><!--cluster Edici?n--><g id="cluster_Edici&#243;n"><path d="M663.5,58 L721.5664,58 A3.75,3.75 0 0 1 724.0664,60.5 L731.0664,80.2969 L988.5,80.2969 A2.5,2.5 0 0 1 991,82.7969 L991,728.5 A2.5,2.5 0 0 1 988.5,731 L663.5,731 A2.5,2.5 0 0 1 661,728.5 L661,60.5 A2.5,2.5 0 0 1 663.5,58 " fill="#FFAAAA" fill-opacity="0.13333" style="stroke:#000000;stroke-width:1.5;"/><line style="stroke:#000000;stroke-width:1.5;" x1="661" x2="731.0664" y1="80.2969" y2="80.2969"/><text fill="#000000" font-family="sans-serif" font-size="14" font-weight="bold" lengthAdjust="spacing" textLength="57.0664" x="665" y="72.9951">Edici&#243;n</text></g><!--cluster Gesti?n de Diccionarios--><g id="cluster_Gesti&#243;n de Diccionarios"><path d="M687.5,101 L874.6631,101 A3.75,3.75 0 0 1 877.1631,103.5 L884.1631,123.2969 L964.5,123.2969 A2.5,2.5 0 0 1 967,125.7969 L967,291.5 A2.5,2.5 0 0 1 964.5,294 L687.5,294 A2.5,2.5 0 0 1 685,291.5 L685,103.5 A2.5,2.5 0 0 1 687.5,101 " fill="none" style="stroke:#000000;stroke-width:1.5;"/><line style="stroke:#000000;stroke-width:1.5;" x1="685" x2="884.1631" y1="123.2969" y2="123.2969"/><text fill="#000000" font-family="sans-serif" font-size="14" font-weight="bold" lengthAdjust="spacing" textLength="186.1631" x="689" y="115.9951">Gesti&#243;n de Diccionarios</text></g><!--cluster Gesti?n de Palabras--><g id="cluster_Gesti&#243;n de Palabras"><path d="M698,318 L857.3203,318 A3.75,3.75 0 0 1 859.8203,320.5 L866.8203,340.2969 L954,340.2969 A2.5,2.5 0 0 1 956.5,342.7969 L956.5,501.5 A2.5,2.5 0 0 1 954,504 L698,504 A2.5,2.5 0 0 1 695.5,501.5 L695.5,320.5 A2.5,2.5 0 0 1 698,318 " fill="none" style="stroke:#000000;stroke-width:1.5;"/><line style="stroke:#000000;stroke-width:1.5;" x1="695.5" x2="866.8203" y1="340.2969" y2="340.2969"/><text fill="#000000" font-family="sans-serif" font-size="14" font-weight="bold" lengthAdjust="spacing" textLength="158.3203" x="699.5" y="332.9951">Gesti&#243;n de Palabras</text></g><!--cluster Gesti?n de Idiomas--><g id="cluster_Gesti&#243;n de Idiomas"><path d="M706,528 L858.6758,528 A3.75,3.75 0 0 1 861.1758,530.5 L868.1758,550.2969 L946,550.2969 A2.5,2.5 0 0 1 948.5,552.7969 L948.5,704.5 A2.5,2.5 0 0 1 946,707 L706,707 A2.5,2.5 0 0 1 703.5,704.5 L703.5,530.5 A2.5,2.5 0 0 1 706,528 " fill="none" style="stroke:#000000;stroke-width:1.5;"/><line style="stroke:#000000;stroke-width:1.5;" x1="703.5" x2="868.1758" y1="550.2969" y2="550.2969"/><text fill="#000000" font-family="sans-serif" font-size="14" font-weight="bold" lengthAdjust="spacing" textLength="151.6758" x="707.5" y="542.9951">Gesti&#243;n de Idiomas</text></g><g id="elem_UC1"><ellipse cx="372.6542" cy="319.9308" fill="#83D3F6" rx="142.6542" ry="30.9308" style="stroke:#181818;stroke-width:0.5;"/><text fill="#000000" font-family="sans-serif" font-size="14" lengthAdjust="spacing" textLength="255.1582" x="245.0751" y="322.7775">UC01: B&#250;squeda exacta de palabras</text></g><g id="elem_UC2"><ellipse cx="372.4175" cy="140.0835" fill="#83D3F6" rx="113.4175" ry="25.0835" style="stroke:#181818;stroke-width:0.5;"/><text fill="#000000" font-family="sans-serif" font-size="14" lengthAdjust="spacing" textLength="193.252" x="275.7915" y="142.9302">UC02: B&#250;squeda por prefijo</text></g><g id="elem_UC3"><ellipse cx="372.5193" cy="227.0039" fill="#83D3F6" rx="120.5193" ry="26.5039" style="stroke:#181818;stroke-width:0.5;"/><text fill="#000000" font-family="sans-serif" font-size="14" lengthAdjust="spacing" textLength="208.4619" x="268.2884" y="229.8505">UC03: B&#250;squeda por similitud</text></g><g id="elem_UC21"><ellipse cx="372.3234" cy="537.7647" fill="#FFCB0C" rx="114.3234" ry="25.2647" style="stroke:#181818;stroke-width:0.5;"/><text fill="#000000" font-family="sans-serif" font-size="14" lengthAdjust="spacing" textLength="195.2002" x="274.7233" y="540.6114">UC21: Exportar diccionarios</text></g><g id="elem_UC22"><ellipse cx="372.6193" cy="451.8239" fill="#FFCB0C" rx="114.6193" ry="25.3239" style="stroke:#181818;stroke-width:0.5;"/><text fill="#000000" font-family="sans-serif" font-size="14" lengthAdjust="spacing" textLength="195.8359" x="274.7013" y="454.6705">UC22: Importar diccionarios</text></g><g id="elem_UC11"><ellipse cx="826.0334" cy="251.8067" fill="#7A97CA" rx="114.5334" ry="25.3067" style="stroke:#181818;stroke-width:0.5;"/><text fill="#000000" font-family="sans-serif" font-size="14" lengthAdjust="spacing" textLength="195.6514" x="728.2077" y="254.6534">UC11: Gestionar diccionario</text></g><g id="elem_UC12"><ellipse cx="826.222" cy="163.9444" fill="#7A97CA" rx="125.222" ry="27.4444" style="stroke:#181818;stroke-width:0.5;"/><text fill="#000000" font-family="sans-serif" font-size="14" lengthAdjust="spacing" textLength="218.4629" x="716.9905" y="166.7911">UC12: Recuperar diccionario(s)</text></g><g id="elem_UC13"><ellipse cx="826.2014" cy="463.8403" fill="#7A97CA" rx="107.2014" ry="23.8403" style="stroke:#181818;stroke-width:0.5;"/><text fill="#000000" font-family="sans-serif" font-size="14" lengthAdjust="spacing" textLength="179.8125" x="736.2952" y="466.687">UC13: Gestionar palabras</text></g><g id="elem_UC14"><ellipse cx="825.8839" cy="378.7768" fill="#7A97CA" rx="114.3839" ry="25.2768" style="stroke:#181818;stroke-width:0.5;"/><text fill="#000000" font-family="sans-serif" font-size="14" lengthAdjust="spacing" textLength="195.3301" x="728.2188" y="381.6235">UC14: Recuperar palabra(s)</text></g><g id="elem_UC15"><ellipse cx="825.7508" cy="668.1502" fill="#FFCB0C" rx="101.2508" ry="22.6502" style="stroke:#181818;stroke-width:0.5;"/><text fill="#000000" font-family="sans-serif" font-size="14" lengthAdjust="spacing" textLength="166.8105" x="742.3456" y="670.9968">UC15: Gestionar idioma</text></g><g id="elem_UC16"><ellipse cx="826.1889" cy="587.2378" fill="#FFCB0C" rx="106.6889" ry="23.7378" style="stroke:#181818;stroke-width:0.5;"/><text fill="#000000" font-family="sans-serif" font-size="14" lengthAdjust="spacing" textLength="178.6982" x="736.8397" y="590.0845">UC16: Recuperar idiomas</text></g><!--entity User--><g id="elem_User"><ellipse cx="55.6021" cy="290.5" fill="#F8FDFF" rx="8" ry="8" style="stroke:#181818;stroke-width:0.5;"/><path d="M55.6021,298.5 L55.6021,325.5 M42.6021,306.5 L68.6021,306.5 M55.6021,325.5 L42.6021,340.5 M55.6021,325.5 L68.6021,340.5 " fill="none" style="stroke:#181818;stroke-width:0.5;"/><text fill="#000000" font-family="sans-serif" font-size="14" lengthAdjust="spacing" textLength="53.2041" x="29" y="354.9951">Usuario</text></g><!--entity Admin--><g id="elem_Admin"><ellipse cx="55.54" cy="401.5" fill="#F8FDFF" rx="8" ry="8" style="stroke:#181818;stroke-width:0.5;"/><path d="M55.54,409.5 L55.54,436.5 M42.54,417.5 L68.54,417.5 M55.54,436.5 L42.54,451.5 M55.54,436.5 L68.54,451.5 " fill="none" style="stroke:#181818;stroke-width:0.5;"/><text fill="#000000" font-family="sans-serif" font-size="14" lengthAdjust="spacing" textLength="99.0801" x="6" y="465.9951">Administrador</text></g><!--entity Editor--><g id="elem_Editor"><ellipse cx="1173.1514" cy="392.5" fill="#EAF0F9" rx="8" ry="8" style="stroke:#181818;stroke-width:0.5;"/><path d="M1173.1514,400.5 L1173.1514,427.5 M1160.1514,408.5 L1186.1514,408.5 M1173.1514,427.5 L1160.1514,442.5 M1173.1514,427.5 L1186.1514,442.5 " fill="none" style="stroke:#181818;stroke-width:0.5;"/><text fill="#000000" font-family="sans-serif" font-size="14" lengthAdjust="spacing" textLength="146.3027" x="1100" y="456.9951">EditorDeDiccionarios</text></g><!--link UC21 to UC16--><g id="link_UC21_UC16"><path d="M475.67,549.09 C552.02,557.37 649.665,567.9724 724.185,576.0624 " fill="none" id="UC21-to-UC16" style="stroke:#181818;stroke-width:1.0;stroke-dasharray:7.0,7.0;"/><polygon fill="#181818" points="730.15,576.71,721.6343,571.762,725.1792,576.1704,720.7709,579.7153,730.15,576.71" style="stroke:#181818;stroke-width:1.0;"/></g><!--link UC21 to UC11--><g id="link_UC21_UC11"><path d="M475.13,526.51 C500.31,520.13 526.05,510.25 547,495 C613.8,446.37 583.34,392.01 645,337 C677.75,307.78 716.7011,288.7707 753.2911,274.8707 " fill="none" id="UC21-to-UC11" style="stroke:#181818;stroke-width:1.0;stroke-dasharray:7.0,7.0;"/><polygon fill="#181818" points="758.9,272.74,749.0661,272.1968,754.2259,274.5156,751.9071,279.6754,758.9,272.74" style="stroke:#181818;stroke-width:1.0;"/></g><!--reverse link UC11 to Editor--><g id="link_UC11_Editor"><path d="M891.6657,276.1051 C932.9657,292.0851 983.42,312.91 1031,337 C1058.67,351.01 1088.21,368.41 1113.07,383.81 " fill="none" id="UC11-backto-Editor" style="stroke:#181818;stroke-width:1.0;"/><polygon fill="#181818" points="886.07,273.94,893.0202,280.9182,890.7331,275.7443,895.907,273.4572,886.07,273.94" style="stroke:#181818;stroke-width:1.0;"/></g><!--reverse link UC12 to Editor--><g id="link_UC12_Editor"><path d="M948.9829,175.0455 C979.5029,181.6855 1005.21,191.3 1031,209 C1094.62,252.67 1136.89,335.38 1157.45,383.88 " fill="none" id="UC12-backto-Editor" style="stroke:#181818;stroke-width:1.0;"/><polygon fill="#181818" points="943.12,173.77,951.0639,179.5919,948.0057,174.8329,952.7646,171.7747,943.12,173.77" style="stroke:#181818;stroke-width:1.0;"/></g><!--reverse link UC13 to Editor--><g id="link_UC13_Editor"><path d="M926.3161,451.9055 C982.7961,445.0355 1047.76,437.12 1099.9,430.78 " fill="none" id="UC13-backto-Editor" style="stroke:#181818;stroke-width:1.0;"/><polygon fill="#181818" points="920.36,452.63,929.7771,455.514,925.3234,452.0263,928.8112,447.5726,920.36,452.63" style="stroke:#181818;stroke-width:1.0;"/></g><!--reverse link UC14 to Editor--><g id="link_UC14_Editor"><path d="M932.2839,392.1222 C987.7139,399.0322 1049.58,406.74 1099.91,413.01 " fill="none" id="UC14-backto-Editor" style="stroke:#181818;stroke-width:1.0;"/><polygon fill="#181818" points="926.33,391.38,934.7661,396.4626,931.2916,391.9985,935.7557,388.5241,926.33,391.38" style="stroke:#181818;stroke-width:1.0;"/></g><!--reverse link UC15 to Editor--><g id="link_UC15_Editor"><path d="M931.9452,663.1203 C967.3652,657.8703 1000.17,648.29 1031,628 C1093.45,586.9 1135.76,507.65 1156.71,460.33 " fill="none" id="UC15-backto-Editor" style="stroke:#181818;stroke-width:1.0;"/><polygon fill="#181818" points="926.01,664,935.4992,666.6372,930.956,663.2669,934.3263,658.7237,926.01,664" style="stroke:#181818;stroke-width:1.0;"/></g><!--reverse link UC16 to Editor--><g id="link_UC16_Editor"><path d="M888.084,564.7327 C929.634,549.0627 981.92,528.11 1031,504 C1057.82,490.83 1086.48,474.59 1110.91,460.04 " fill="none" id="UC16-backto-Editor" style="stroke:#181818;stroke-width:1.0;"/><polygon fill="#181818" points="882.47,566.85,892.3025,567.4168,887.1484,565.0856,889.4795,559.9314,882.47,566.85" style="stroke:#181818;stroke-width:1.0;"/></g><!--link User to UC1--><g id="link_User_UC1"><path d="M82.01,320 C114.6,320 167.53,320 223.76,320 " fill="none" id="User-to-UC1" style="stroke:#181818;stroke-width:1.0;"/><polygon fill="#181818" points="229.76,320,220.76,316,224.76,320,220.76,324,229.76,320" style="stroke:#181818;stroke-width:1.0;"/></g><!--link User to UC2--><g id="link_User_UC2"><path d="M79.29,281.69 C100.01,250.27 133.51,207.17 174,183 C202.1,166.23 230.044,157.1338 261.704,150.8738 " fill="none" id="User-to-UC2" style="stroke:#181818;stroke-width:1.0;"/><polygon fill="#181818" points="267.59,149.71,257.9851,147.5317,262.685,150.6799,259.5368,155.3798,267.59,149.71" style="stroke:#181818;stroke-width:1.0;"/></g><!--link User to UC3--><g id="link_User_UC3"><path d="M82.14,307.76 C105.63,296.93 141.56,281.29 174,271 C207.99,260.22 240.2004,252.3142 273.7904,245.1942 " fill="none" id="User-to-UC3" style="stroke:#181818;stroke-width:1.0;"/><polygon fill="#181818" points="279.66,243.95,270.0262,241.9032,274.7687,244.9868,271.6851,249.7293,279.66,243.95" style="stroke:#181818;stroke-width:1.0;"/></g><!--link Admin to UC21--><g id="link_Admin_UC21"><path d="M105.05,461.49 C125.68,473.37 150.38,486.2 174,495 C207.21,507.37 239.0773,515.4896 272.6173,522.2196 " fill="none" id="Admin-to-UC21" style="stroke:#181818;stroke-width:1.0;"/><polygon fill="#181818" points="278.5,523.4,270.4628,517.7076,273.5977,522.4163,268.889,525.5512,278.5,523.4" style="stroke:#181818;stroke-width:1.0;"/></g><!--link Admin to UC22--><g id="link_Admin_UC22"><path d="M105.03,434.24 C146.88,437.03 202.8732,440.7617 256.5332,444.3317 " fill="none" id="Admin-to-UC22" style="stroke:#181818;stroke-width:1.0;"/><polygon fill="#181818" points="262.52,444.73,253.8054,440.1414,257.531,444.3981,253.2743,448.1237,262.52,444.73" style="stroke:#181818;stroke-width:1.0;"/></g><!--SRC=[XLJBJkim4DtxAoowWKMgncbAOO441I5sw5xn0OCVnT0qmNOa9DIlkhkxvSSOvr6SHukpQ3q-P-OSpyWRgHnrEJLw_UAeq4Pof_Cj8SJbQ-bUfA6VX01tkQ5FjWIZSmeM_-B1H2sLKAevlHQPtchh30ZS8QOAx45ar-3kXCQVMtchESTAFgFry3fE9nBKJ5sW02y5jkkDf2T_CQ_CW0f9Gze9dQnc_ajJhv9G6eYck0hWRx3613TV_-rxAGLupd89e1HZ3SYlqaeE5e5FgrbyIVTmAZzGTLMuW0qy6v_0-r_5c2SHYLgCvc1XZW9j5KOg_PetP7QKdFJ9LcTwerqf6dhIeU-wLd_wmFNNlsrrHpTuGuoDscLez-u3gpWmsF_mSckfQ5Gf_ZpZesmq-f0TORCEUuTJSAX5sFzMi5A0gnMyHznBwpnYE0QZpc9qLb4yB1JNTX2TdSF5EOTHDZhx8tbPIDDbdzgpDW4R90WQSbZxutwIndKdeUx-s2L7HSz3qGqr43pla7_J-I1qdXsMcOOoTOLjwwJ7PYPUX29rMwHcBWRpuZzIpU5qEXNJgmhL3yI4DEz759LH4-f7s12K329pEWYbWyW25VaNC8hgVMV7Ehk4rEzWUnZtzkmR]--></g></svg>